<svg width="111" height="141" viewBox="0 0 111 141" fill="none" xmlns="http://www.w3.org/2000/svg">
<path fill-rule="evenodd" clip-rule="evenodd" d="M51.5811 20.7117L54.1702 0H56.1548L58.7439 20.7117C61.7664 44.8902 80.3375 64.1979 104.38 68.1581L110.325 69.1373L110.325 71.1107L104.38 72.09C80.3375 76.0502 61.7664 95.3579 58.7439 119.536L56.1548 140.248H54.1702L51.5811 119.536C48.5587 95.3579 29.9876 76.0502 5.94482 72.0899L0 71.1107V69.1373L5.94483 68.1581C29.9876 64.1979 48.5586 44.8902 51.5811 20.7117ZM55.1625 8.18583L53.5657 20.9598C50.4352 46.0023 31.2103 66.003 6.31527 70.124C31.2103 74.2451 50.4352 94.2458 53.5657 119.288L55.1625 132.062L56.7594 119.288C59.8899 94.2458 79.1148 74.2451 104.01 70.124C79.1148 66.003 59.8899 46.0023 56.7594 20.9598L55.1625 8.18583Z" fill="#CCF381"/>
<path fill-rule="evenodd" clip-rule="evenodd" d="M74.1624 29.5812C74.1624 21.0207 81.102 14.0811 89.6625 14.0811C98.2229 14.0811 105.163 21.0207 105.163 29.5812C105.163 38.1416 98.2229 45.0813 89.6625 45.0813C81.102 45.0813 74.1624 38.1416 74.1624 29.5812ZM89.6625 16.0811C82.2066 16.0811 76.1624 22.1253 76.1624 29.5812C76.1624 37.0371 82.2066 43.0813 89.6625 43.0813C97.1184 43.0813 103.163 37.0371 103.163 29.5812C103.163 22.1253 97.1184 16.0811 89.6625 16.0811Z" fill="#CCF381"/>
<path fill-rule="evenodd" clip-rule="evenodd" d="M18.6625 91.7438C10.102 91.7438 3.16235 98.6834 3.16235 107.244C3.16235 115.804 10.102 122.744 18.6625 122.744C27.2229 122.744 34.1626 115.804 34.1626 107.244C34.1626 98.6834 27.2229 91.7438 18.6625 91.7438ZM5.16235 107.244C5.16235 99.788 11.2066 93.7438 18.6625 93.7438C26.1184 93.7438 32.1626 99.788 32.1626 107.244C32.1626 114.7 26.1184 120.744 18.6625 120.744C11.2066 120.744 5.16235 114.7 5.16235 107.244Z" fill="#CCF381"/>
</svg>
